<?xml version="1.0" encoding="UTF-8"?>
<svg id="katman_1" xmlns="http://www.w3.org/2000/svg" version="1.1" viewBox="0 0 597.46 541.2">
  <!-- Generator: Adobe Illustrator 29.3.0, SVG Export Plug-In . SVG Version: 2.1.0 Build 146)  -->
  <defs>
    <style>
      .st0 {
        stroke-dasharray: 2.98 2.98;
      }

      .st0, .st1, .st2, .st3, .st4, .st5, .st6, .st7, .st8, .st9, .st10 {
        stroke-miterlimit: 10;
        stroke-width: .5px;
      }

      .st0, .st1, .st2, .st3, .st4, .st5, .st7, .st8, .st9, .st10 {
        fill: none;
        stroke: #dadada;
      }

      .st1 {
        stroke-dasharray: 3.05 3.05;
      }

      .st2 {
        stroke-dasharray: 3.01 3.01;
      }

      .st4 {
        stroke-dasharray: 3 3;
      }

      .st5 {
        stroke-dasharray: 3.02 3.02;
      }

      .st6 {
        fill: #eae4ca;
        stroke: #fff;
      }

      .st7 {
        stroke-dasharray: 3 3;
      }

      .st11 {
        opacity: .8;
      }

      .st12 {
        opacity: .4;
      }

      .st13 {
        opacity: .1;
      }

      .st8 {
        stroke-dasharray: 3 3;
      }

      .st9 {
        stroke-dasharray: 2.99 2.99;
      }

      .st10 {
        stroke-dasharray: 3.03 3.03;
      }
    </style>
  </defs>
  <g class="st11">
    <g class="st12">
      <circle class="st4" cx="304.15" cy="286.21" r="212.6"/>
    </g>
    <g class="st12">
      <circle class="st10" cx="304.15" cy="286.21" r="45.35" transform="translate(-113.3 298.9) rotate(-45)"/>
    </g>
    <g class="st12">
      <circle class="st0" cx="304.15" cy="286.21" r="78.8"/>
    </g>
    <g class="st12">
      <circle class="st9" cx="304.15" cy="286.21" r="111.4"/>
    </g>
    <g class="st12">
      <circle class="st2" cx="304.15" cy="286.21" r="144.6"/>
    </g>
    <g class="st12">
      <g>
        <line class="st3" x1="60.3" y1="246.6" x2="61.36" y2="247.66"/>
        <line class="st5" x1="63.5" y1="249.79" x2="297.47" y2="483.77"/>
        <line class="st3" x1="298.54" y1="484.83" x2="299.6" y2="485.89"/>
      </g>
      <g>
        <line class="st3" x1="83.65" y1="223.25" x2="84.71" y2="224.31"/>
        <line class="st5" x1="86.85" y1="226.45" x2="320.82" y2="460.42"/>
        <line class="st3" x1="321.88" y1="461.49" x2="322.95" y2="462.55"/>
      </g>
    </g>
    <g class="st12">
      <g>
        <line class="st3" x1="106.79" y1="200.11" x2="107.85" y2="201.17"/>
        <line class="st5" x1="109.99" y1="203.31" x2="343.96" y2="437.28"/>
        <line class="st3" x1="345.03" y1="438.35" x2="346.09" y2="439.41"/>
      </g>
    </g>
    <g class="st12">
      <g>
        <line class="st3" x1="130.14" y1="176.76" x2="131.2" y2="177.82"/>
        <line class="st5" x1="133.33" y1="179.96" x2="367.3" y2="413.93"/>
        <line class="st3" x1="368.37" y1="415" x2="369.43" y2="416.06"/>
      </g>
    </g>
    <g class="st12">
      <g>
        <line class="st3" x1="259.51" y1="177.59" x2="260.57" y2="178.65"/>
        <line class="st5" x1="262.71" y1="180.79" x2="496.68" y2="414.76"/>
        <line class="st3" x1="497.75" y1="415.82" x2="498.81" y2="416.88"/>
      </g>
    </g>
    <g class="st12">
      <g>
        <line class="st3" x1="282.86" y1="154.24" x2="283.92" y2="155.3"/>
        <line class="st5" x1="286.05" y1="157.44" x2="520.02" y2="391.41"/>
        <line class="st3" x1="521.09" y1="392.48" x2="522.15" y2="393.54"/>
      </g>
    </g>
    <g class="st12">
      <g>
        <line class="st3" x1="573.94" y1="173.84" x2="572.88" y2="174.9"/>
        <line class="st8" x1="570.75" y1="177.02" x2="232.23" y2="515.55"/>
        <line class="st3" x1="231.16" y1="516.61" x2="230.1" y2="517.67"/>
      </g>
      <g>
        <line class="st3" x1="597.28" y1="197.19" x2="596.22" y2="198.25"/>
        <line class="st8" x1="594.1" y1="200.37" x2="255.57" y2="538.9"/>
        <line class="st3" x1="254.51" y1="539.96" x2="253.45" y2="541.02"/>
      </g>
    </g>
    <g class="st12">
      <g>
        <line class="st3" x1="386.1" y1=".18" x2="385.04" y2="1.24"/>
        <line class="st7" x1="382.92" y1="3.36" x2="2.3" y2="383.98"/>
        <line class="st3" x1="1.24" y1="385.04" x2=".18" y2="386.1"/>
      </g>
      <g>
        <line class="st3" x1="409.45" y1="23.52" x2="408.39" y2="24.58"/>
        <line class="st7" x1="406.27" y1="26.7" x2="25.64" y2="407.33"/>
        <line class="st3" x1="24.58" y1="408.39" x2="23.52" y2="409.45"/>
      </g>
    </g>
    <g class="st12">
      <g>
        <line class="st3" x1="270.42" y1="94.98" x2="271.48" y2="96.04"/>
        <line class="st5" x1="273.62" y1="98.18" x2="507.59" y2="332.15"/>
        <line class="st3" x1="508.66" y1="333.22" x2="509.72" y2="334.28"/>
      </g>
      <g>
        <line class="st3" x1="293.76" y1="71.63" x2="294.83" y2="72.69"/>
        <line class="st5" x1="296.96" y1="74.83" x2="530.93" y2="308.8"/>
        <line class="st3" x1="532" y1="309.87" x2="533.06" y2="310.93"/>
      </g>
      <circle class="st1" cx="485.53" cy="286.74" r="16.52"/>
    </g>
    <g class="st12">
      <circle class="st1" cx="438.19" cy="332.94" r="16.52"/>
    </g>
    <g class="st12">
      <circle class="st1" cx="123.37" cy="286.33" r="16.52"/>
    </g>
    <g class="st12">
      <circle class="st1" cx="169.8" cy="239.84" r="16.52"/>
    </g>
  </g>
  <g class="st13">
    <path class="st6" d="M497.91,276.09l-12.8-12.8-72.96-72.96-11.5-11.5c-22.43-20.04-51.14-33.2-82.82-36.13-4.45-.42-8.97-.63-13.53-.63s-8.98.21-13.39.61c-31.29,2.88-59.69,15.72-82.01,35.32l-38.92,38.92-11.7,11.71c-2.99,2.99-4.84,7.12-4.84,11.68,0,4.06,1.47,7.78,3.9,10.66l1.96,1.96c1.14.97,2.42,1.78,3.8,2.41-.08.38-.16.76-.24,1.15l7.12,7.12,22.92,22.92,52.6,52.6,6.35,6.35c13.93,12.44,32.31,20,52.45,20,4.48,0,8.87-.37,13.14-1.1,32.83-5.5,58.77-31.3,64.49-64.06l33.08,33.08-28.89,28.88c-1.99,2.15-4.06,4.22-6.21,6.21-10.37,9.59-22.57,17.24-36.02,22.34-12.26,4.67-25.55,7.23-39.44,7.25h-.15c-30.62,0-58.35-12.36-78.49-32.35l-.56-.56-64.92-64.92-13.49-13.5-11.42-11.42-.44-.44c-2.97-2.86-7.01-4.62-11.46-4.62-9.12,0-16.52,7.4-16.52,16.52,0,4.26,1.6,8.12,4.24,11.05.02.02.04.04.05.06l1.12,1.12s.04.03.06.05l11.02,11.03,73.37,73.37,10.65,10.64c22.48,20.27,51.35,33.58,83.23,36.54,4.46.42,8.99.63,13.56.63s9.02-.21,13.44-.62c5.69-.52,11.27-1.37,16.75-2.54,12.16-2.58,23.75-6.68,34.57-12.12,11.19-5.6,21.54-12.62,30.84-20.81l12.91-12.92,25.54-25.53,11.07-11.07s.02-.02.03-.03l1.12-1.12s.01-.02.03-.03c2.64-2.93,4.26-6.82,4.26-11.08,0-6.6-3.87-12.29-9.46-14.94.09-.37.17-.75.25-1.13l-7.3-7.29-22.65-22.66-49.5-49.49-13.12-13.13c-13.42-10.58-30.36-16.9-48.78-16.9-4.65,0-9.21.4-13.64,1.18-32.76,5.71-58.56,31.66-64.06,64.49l-26.45-26.45-6.82-6.82,28.77-28.78c2.23-2.44,4.58-4.79,7.02-7.02,10.17-9.31,22.07-16.76,35.17-21.79,12.21-4.71,25.45-7.32,39.29-7.4.24-.01.48-.01.72-.01,29.73,0,56.75,11.65,76.73,30.63l4.05,4.05,63.21,63.21,13.48,13.48,11.96,11.96c.18.19.37.38.56.56,2.96,2.83,6.97,4.56,11.39,4.56,2.69,0,5.24-.65,7.48-1.79l7.25-7.25c1.14-2.24,1.79-4.79,1.79-7.48,0-4.28-1.63-8.17-4.29-11.11ZM304.3,241.32c11.35,0,21.72,4.17,29.68,11.06l.09.08c1.59,1.38,3.07,2.86,4.44,4.44l.08.09c6.9,7.96,11.07,18.33,11.07,29.68,0,25.05-20.31,45.36-45.36,45.36s-45.35-20.31-45.35-45.36,20.31-45.35,45.35-45.35Z"/>
    <path class="st6" d="M331.23,286.67c0,14.88-12.05,26.93-26.93,26.93s-26.92-12.05-26.92-26.93,12.05-26.93,26.92-26.93,26.93,12.06,26.93,26.93Z"/>
  </g>
</svg>